<svg class="c-header__logo" width="140" height="16" xmlns="http://www.w3.org/2000/svg" viewBox="0 0 281.63 34.4">
<path d="M49.05,25c-3,5.85-10,9.21-22.8,9.21C14.14,34.25,7,30.59,3.7,25.71a15.31,15.31,0,0,1-2.52-8.45A13.88,13.88,0,0,1,3.36,9.4C7,4.14,13.76.14,26,.14c13,0,19.33,4.5,22.89,9.68a10.66,10.66,0,0,1,1.38,4.41H41.17a6,6,0,0,0-1.3-2.35C38,9.65,33.29,7.5,26,7.5c-7.46,0-12.95,2.28-15,6a7.44,7.44,0,0,0-.84,3.74,7.08,7.08,0,0,0,1,3.87C13.67,25.21,20,27,26,27c6.88,0,11.28-.8,14.34-4.42a4.43,4.43,0,0,0,.84-2.19h9.13A17.52,17.52,0,0,1,49.05,25Z"></path>
<path d="M95.54,16a9.61,9.61,0,0,1-6.45,3.95L101,33.75H91.27L80.16,20.88H63.35V33.75h-8.6V.9H83.18c5.74,0,9.68,1.47,11.73,3.62a8,8,0,0,1,2.1,5.8A9.78,9.78,0,0,1,95.54,16ZM87.91,9.14c-.88-.92-2-1.38-4.78-1.38H63.35v6.3H83.64c2.68,0,3.77-.42,4.36-1.22A3.14,3.14,0,0,0,88.62,11,2.37,2.37,0,0,0,87.91,9.14Z"></path>
<path d="M104.64,33.75V.9h39V8H113.19v5.84H143v6.86H113.19v6H144v7.07Z"></path>
<path d="M155.36,33.75H146.1L168,.9h9.81L199,33.75H189.4L185.16,27H159.72Zm19.12-23.68-1.85-3.2-1.93,3.2L164.12,20.2h16.73S174.48,10.07,174.48,10.07Z"></path>
<path d="M218.78,8V33.75h-8.84V8h-18V.9h44.86V8Z"></path>
<path d="M241,33.75V.9h39V8H249.59v5.84h29.77v6.86H249.59v6h30.86v7.07Z"></path>
</svg>